<svg xmlns="http://www.w3.org/2000/svg" width="120" height="73" viewBox="0 0 120 73">
  <g id="Grupo_250" data-name="Grupo 250" transform="translate(-96.941 -13.865)">
    <g id="Grupo_72" data-name="Grupo 72" transform="translate(96.886 14.331)">
      <path id="Trazado_31" data-name="Trazado 31" d="M174.219,1357.227c-11.541-8.621-29.76-16-48-16v2h0c19.347,0,35,15.207,35,34s-15.653,35-35,35h0v2c18.24,0,36.459-7.379,48-16,7.738-5.781,12-12.438,12-20s-4.262-15.217-12-21" transform="translate(-66.163 -1341.693)" fill="#008bb7"/>
      <path id="Trazado_32" data-name="Trazado 32" d="M159.74,1412.227c-19.347,0-35-16.205-35-35s15.653-34,35-34h0v-2c-18.238,0-36.457,7.379-48,16-7.738,5.783-12,13.436-12,21s4.262,14.219,12,20c11.543,8.621,29.762,16,48,16v-2Z" transform="translate(-99.685 -1341.693)" fill="#d4007f"/>
      <path id="Trazado_33" data-name="Trazado 33" d="M147.6,1364.738c-1.6-.851-3-1.966-3-3,0-.563.031-1,1-1,1.5,0,3.608,1.9,4,3h2v-4h-2v1a6.555,6.555,0,0,0-4-2c-2.711,0-5,1.458-5,4a5.387,5.387,0,0,0,3,5c2.689,1.417,3,1.9,3,3,0,.725-.3,1-1,1-1.145,0-2.436-1.26-3-3h-2v4h2v-1a7.313,7.313,0,0,0,4,2,4.859,4.859,0,0,0,5-5c0-2.843-2.366-3.131-4-4m17-1c0-3.329-2.205-5-4-5a8.194,8.194,0,0,0-5,2v-1h-2v4h2a3.731,3.731,0,0,1,3-2c.74,0,1-.312,1,1v2a6.056,6.056,0,0,0-3-1c-1.573,0-4,1.354-4,5,0,2.549,1.492,5,4,5a3.9,3.9,0,0,0,3-2v1h6v-2h-1Zm-5,5c0,1.46-.563,2-1,2-.7,0-1-.708-1-2,0-1.989.208-3,1-3a1.181,1.181,0,0,1,1,1Zm-34,2h-5v-7h3v1h2v-5h-2v2h-3v-7h5v3h2v-5h-15v2h2v16h-2v2h16v-5h-3Zm11-11h-7v2h2v9h-2v2h9v-2h-2Zm-2-2c1.607,0,3-.393,3-2a3,3,0,0,0-6,0c0,1.607,1.393,2,3,2m39,13v-11h-7v2h2v9h-2v2h9v-2Zm-2-13c1.609,0,3-.393,3-2a3,3,0,0,0-6,0c0,1.607,1.391,2,3,2" transform="translate(-83.548 -1328.205)"/>
    </g>
  </g>
</svg>
