<svg xmlns="http://www.w3.org/2000/svg" width="36" height="21.9" viewBox="0 0 36 21.9">
  <g id="Grupo_343" data-name="Grupo 343" transform="translate(-96.941 -13.865)">
    <g id="Grupo_72" data-name="Grupo 72" transform="translate(96.941 13.865)">
      <path id="Trazado_31" data-name="Trazado 31" d="M140.619,1346.027a25.372,25.372,0,0,0-14.4-4.8v.6h0a10.347,10.347,0,0,1,10.5,10.2,10.6,10.6,0,0,1-10.5,10.5h0v.6a25.371,25.371,0,0,0,14.4-4.8c2.322-1.734,3.6-3.731,3.6-6a8.088,8.088,0,0,0-3.6-6.3" transform="translate(-108.219 -1341.227)" fill="#008bb7"/>
      <path id="Trazado_32" data-name="Trazado 32" d="M117.74,1362.526a10.6,10.6,0,0,1-10.5-10.5,10.347,10.347,0,0,1,10.5-10.2h0v-.6a25.375,25.375,0,0,0-14.4,4.8,8.088,8.088,0,0,0-3.6,6.3c0,2.269,1.278,4.266,3.6,6a25.374,25.374,0,0,0,14.4,4.8v-.6Z" transform="translate(-99.74 -1341.227)" fill="#d4007f"/>
      <path id="Trazado_33" data-name="Trazado 33" d="M123.1,1356.338c-.479-.255-.9-.59-.9-.9,0-.169.009-.3.3-.3a1.7,1.7,0,0,1,1.2.9h.6v-1.2h-.6v.3a1.967,1.967,0,0,0-1.2-.6c-.813,0-1.5.438-1.5,1.2a1.616,1.616,0,0,0,.9,1.5c.807.425.9.569.9.9,0,.217-.089.3-.3.3-.344,0-.731-.378-.9-.9H121v1.2h.6v-.3a2.193,2.193,0,0,0,1.2.6,1.458,1.458,0,0,0,1.5-1.5c0-.853-.71-.939-1.2-1.2m5.1-.3a1.349,1.349,0,0,0-1.2-1.5,2.458,2.458,0,0,0-1.5.6v-.3h-.6v1.2h.6a1.119,1.119,0,0,1,.9-.6c.222,0,.3-.094.3.3v.6a1.816,1.816,0,0,0-.9-.3,1.328,1.328,0,0,0-1.2,1.5,1.353,1.353,0,0,0,1.2,1.5,1.169,1.169,0,0,0,.9-.6v.3h1.8v-.6h-.3Zm-1.5,1.5c0,.438-.169.6-.3.6-.211,0-.3-.212-.3-.6,0-.6.062-.9.3-.9a.354.354,0,0,1,.3.3Zm-10.2.6H115v-2.1h.9v.3h.6v-1.5h-.6v.6H115v-2.1h1.5v.9h.6v-1.5h-4.5v.6h.6v4.8h-.6v.6h4.8v-1.5h-.9Zm3.3-3.3h-2.1v.6h.6v2.7h-.6v.6h2.7v-.6h-.6Zm-.6-.6c.482,0,.9-.118.9-.6a.9.9,0,1,0-1.8,0c0,.482.418.6.9.6m11.7,3.9v-3.3h-2.1v.6h.6v2.7h-.6v.6h2.7v-.6Zm-.6-3.9c.483,0,.9-.118.9-.6a.9.9,0,1,0-1.8,0c0,.482.417.6.9.6" transform="translate(-103.904 -1345.238)"/>
    </g>
  </g>
</svg>
